<svg viewBox="0 0 348 348" fill="none" xmlns="http://www.w3.org/2000/svg"><path d="M5.079 5.776h336.913v337.67H5.08z" stroke-width="2" stroke="#000"/><path d="M282.734 40.554c0-8.376 6.966-15.165 15.56-15.165 4.126 0 8.084 1.597 11.001 4.441 2.918 2.844 4.558 6.702 4.558 10.724 0 8.376-6.966 15.165-15.56 15.165-8.593 0-15.559-6.79-15.559-15.165z" stroke-width="2" stroke="#000"/><path style="fill:none;stroke:#000;stroke-width:2;stroke-dasharray:none" d="M23.53 28.947h227.762v227.762H23.53zM37.334 104.392h200.155M37.334 180.312h200.155M99.927 42.75v200.155M174.895 42.75v200.155M264.036 94.842h27.608v27.608h-27.608zM264.036 129.024h27.608v27.608h-27.608zM264.036 163.207h27.608v27.608h-27.608z"/><path style="fill:#f55;stroke:#000;stroke-width:2;stroke-dasharray:none" d="M297.607 94.842h27.608v27.608h-27.608z"/><path style="fill:#fd5;stroke:#000;stroke-width:2;stroke-dasharray:none" d="M297.607 129.024h27.608v27.608h-27.608z"/><path style="fill:#2a7fff;stroke:#000;stroke-width:2;stroke-dasharray:none" d="M297.607 163.207h27.608v27.608h-27.608z"/><path style="fill:none;stroke:#000;stroke-width:2;stroke-dasharray:none" d="M273.539 209.108h39.933v39.933h-39.933z"/><circle style="fill:#000;stroke:none;stroke-width:2;stroke-dasharray:none" cx="277.84" cy="108.646" r="10.033"/><path style="fill:#000;stroke:none;stroke-width:2;stroke-dasharray:none" d="M267.807 133.032h20.066v19.592h-20.066zM267.807 186.742 277.84 167.3l10.033 19.291z"/><path style="fill:none;stroke:#000;stroke-width:2;stroke-dasharray:none" d="M23.53 275.775h48.595v48.595H23.53zM84.078 275.775h48.595v48.595H84.078zM159.954 275.775h165.26v48.595h-165.26z"/><g style="font-size:27.6076px;-inkscape-font-specification:'sans-serif, Normal';fill:#000;stroke-width:2"><path d="m47.06 299.264 5.135-9.69h2.678l-6.57 12.064v7.647h-2.485v-7.537l-6.57-12.175h2.705z" style="text-align:center;text-anchor:middle" aria-label="Y"/></g><g style="font-size:27.6076px;-inkscape-font-specification:'sans-serif, Normal';fill:#000;stroke-width:2"><path d="M116.189 309.285h-2.9l-10.545-16.371h-.11l.137 2.402q.083 1.435.083 2.954v11.015h-2.291v-19.712h2.87l10.52 16.316h.11l-.083-1.325q-.028-.883-.083-1.905-.027-1.049-.027-1.96v-11.126h2.319z" style="text-align:center;text-anchor:middle" aria-label="N"/></g><g aria-label="Ready" style="font-size:27.6076px;-inkscape-font-specification:'sans-serif, Normal';fill:#000;stroke-width:2"><path d="M212.955 287.538q3.672 0 5.411 1.408 1.767 1.38 1.767 4.197 0 1.573-.58 2.622-.58 1.05-1.49 1.684-.884.635-1.878.967l5.411 8.834h-2.898l-4.776-8.144h-3.92v8.144h-2.485v-19.712zm-.138 2.154h-2.816v7.316h2.954q2.402 0 3.506-.939 1.105-.966 1.105-2.816 0-1.933-1.16-2.733-1.16-.828-3.589-.828zM230.072 292.176q1.877 0 3.258.829 1.38.828 2.098 2.346.745 1.491.745 3.506v1.464h-10.132q.055 2.512 1.27 3.837 1.243 1.298 3.451 1.298 1.408 0 2.485-.249 1.104-.276 2.264-.773v2.126q-1.132.497-2.237.718-1.104.248-2.622.248-2.126 0-3.727-.856-1.602-.856-2.513-2.54-.883-1.684-.883-4.168 0-2.43.8-4.17.829-1.738 2.292-2.677 1.49-.939 3.451-.939zm-.028 1.988q-1.739 0-2.76 1.132-.994 1.104-1.187 3.092h7.536q-.027-1.877-.883-3.037-.856-1.187-2.706-1.187zM245.532 292.204q2.706 0 4.003 1.187 1.298 1.187 1.298 3.782v10.077h-1.767l-.47-2.098h-.11q-.966 1.215-2.043 1.794-1.076.58-2.926.58-2.015 0-3.34-1.049-1.326-1.077-1.326-3.34 0-2.21 1.74-3.396 1.739-1.215 5.355-1.325l2.513-.083v-.884q0-1.85-.801-2.567-.8-.718-2.264-.718-1.16 0-2.208.359-1.05.331-1.96.773l-.746-1.822q.966-.525 2.291-.884 1.326-.386 2.761-.386zm2.899 7.813-2.181.083q-2.76.11-3.837.883-1.05.773-1.05 2.181 0 1.242.746 1.822.773.58 1.96.58 1.85 0 3.092-1.022 1.27-1.049 1.27-3.202zM260.661 307.526q-2.76 0-4.417-1.905-1.656-1.932-1.656-5.742t1.656-5.743q1.684-1.96 4.445-1.96 1.712 0 2.788.635 1.105.635 1.795 1.546h.165q-.055-.359-.11-1.049-.055-.718-.055-1.132v-5.908h2.43v20.982h-1.961l-.359-1.988h-.11q-.663.939-1.767 1.602-1.104.662-2.844.662zm.387-2.015q2.346 0 3.285-1.27.966-1.298.966-3.893v-.442q0-2.76-.91-4.224-.912-1.49-3.369-1.49-1.96 0-2.954 1.573-.966 1.546-.966 4.17 0 2.65.966 4.113.994 1.463 2.982 1.463zM270.075 292.452h2.596l3.202 8.42q.414 1.133.745 2.126.332.994.497 1.905h.11q.166-.69.525-1.794.36-1.132.746-2.264l3.009-8.393h2.623l-6.378 16.841q-.8 2.098-2.015 3.34-1.215 1.243-3.368 1.243-.663 0-1.16-.083-.497-.055-.856-.138v-1.932q.304.055.718.11.442.055.911.055 1.27 0 2.043-.718.773-.717 1.243-1.905l.773-1.96z" style="text-align:center;text-anchor:middle"/></g></svg>